<svg width="25" height="25" viewBox="0 0 25 25" fill="red" xmlns="http://www.w3.org/2000/svg">
<path d="M2.70772 3.68294C2.60932 3.68154 2.51163 3.69972 2.42032 3.73642C2.32901 3.77311 2.2459 3.82758 2.17583 3.89667C2.10575 3.96576 2.05011 4.04809 2.01213 4.13888C1.97415 4.22966 1.95459 4.32708 1.95459 4.42549C1.95459 4.5239 1.97415 4.62133 2.01213 4.71211C2.05011 4.80289 2.10575 4.88522 2.17583 4.95431C2.2459 5.0234 2.32901 5.07788 2.42032 5.11457C2.51163 5.15126 2.60932 5.16944 2.70772 5.16805H4.07198C4.43233 5.16805 4.73272 5.41702 4.801 5.77138L4.94893 6.54487L6.54523 14.9286C6.8339 16.4412 8.16657 17.544 9.7069 17.544H18.9753C20.5157 17.544 21.8489 16.4416 22.137 14.9286L23.7333 6.54487C23.7538 6.43753 23.7503 6.32699 23.7231 6.22114C23.696 6.1153 23.6458 6.01674 23.5762 5.93252C23.5065 5.8483 23.4192 5.78049 23.3203 5.73391C23.2215 5.68734 23.1136 5.66315 23.0043 5.66309H6.29191L6.26001 5.49388C6.06044 4.44803 5.13686 3.68294 4.07198 3.68294H2.70772ZM6.57521 7.1482H22.107L20.678 14.6511C20.5215 15.4727 19.8122 16.0589 18.9753 16.0589H9.7069C8.87035 16.0589 8.16145 15.4727 8.00424 14.6511V14.6502L6.57521 7.1482ZM10.8758 18.5341C10.482 18.5341 10.1042 18.6905 9.82571 18.9691C9.5472 19.2476 9.39073 19.6253 9.39073 20.0192C9.39073 20.4131 9.5472 20.7908 9.82571 21.0693C10.1042 21.3478 10.482 21.5043 10.8758 21.5043C11.2697 21.5043 11.6475 21.3478 11.926 21.0693C12.2045 20.7908 12.361 20.4131 12.361 20.0192C12.361 19.6253 12.2045 19.2476 11.926 18.9691C11.6475 18.6905 11.2697 18.5341 10.8758 18.5341ZM17.8064 18.5341C17.4125 18.5341 17.0348 18.6905 16.7562 18.9691C16.4777 19.2476 16.3213 19.6253 16.3213 20.0192C16.3213 20.4131 16.4777 20.7908 16.7562 21.0693C17.0348 21.3478 17.4125 21.5043 17.8064 21.5043C18.2003 21.5043 18.578 21.3478 18.8565 21.0693C19.135 20.7908 19.2915 20.4131 19.2915 20.0192C19.2915 19.6253 19.135 19.2476 18.8565 18.9691C18.578 18.6905 18.2003 18.5341 17.8064 18.5341Z" fill="#red"/>
</svg>
